<?xml version="1.0" encoding="UTF-8"?>
<svg xmlns="http://www.w3.org/2000/svg" xmlns:xlink="http://www.w3.org/1999/xlink" viewBox="0 0 30 30" width="30px" height="30px">
<g id="surface13588565">
<path style=" stroke:none;fill-rule:nonzero;fill:rgb(49.803922%,52.941179%,54.11765%);fill-opacity:1;" d="M 10 3.75 C 6.546875 3.75 3.75 6.546875 3.75 10 L 3.75 20 C 3.75 23.453125 6.546875 26.25 10 26.25 L 20 26.25 C 23.453125 26.25 26.25 23.453125 26.25 20 L 26.25 10 C 26.25 6.546875 23.453125 3.75 20 3.75 Z M 22.5 6.25 C 23.191406 6.25 23.75 6.808594 23.75 7.5 C 23.75 8.191406 23.191406 8.75 22.5 8.75 C 21.808594 8.75 21.25 8.191406 21.25 7.5 C 21.25 6.808594 21.808594 6.25 22.5 6.25 Z M 15 8.75 C 18.453125 8.75 21.25 11.546875 21.25 15 C 21.25 18.453125 18.453125 21.25 15 21.25 C 11.546875 21.25 8.75 18.453125 8.75 15 C 8.75 11.546875 11.546875 8.75 15 8.75 Z M 15 11.25 C 12.929688 11.25 11.25 12.929688 11.25 15 C 11.25 17.070312 12.929688 18.75 15 18.75 C 17.070312 18.75 18.75 17.070312 18.75 15 C 18.75 12.929688 17.070312 11.25 15 11.25 Z M 15 11.25 "/>
</g>
</svg>
