<?xml version="1.0" encoding="UTF-8"?>
<svg xmlns="http://www.w3.org/2000/svg" xmlns:xlink="http://www.w3.org/1999/xlink" viewBox="0 0 30 30" width="30px" height="30px">
<g id="surface14085264">
<path style=" stroke:none;fill-rule:nonzero;fill:rgb(49.803922%,52.941179%,54.11765%);fill-opacity:1;" d="M 26.9375 8.699219 C 26.699219 7.378906 25.5625 6.417969 24.238281 6.121094 C 22.261719 5.699219 18.601562 5.398438 14.640625 5.398438 C 10.679688 5.398438 6.960938 5.699219 4.980469 6.121094 C 3.660156 6.417969 2.519531 7.320312 2.28125 8.699219 C 2.039062 10.199219 1.800781 12.300781 1.800781 15 C 1.800781 17.699219 2.039062 19.800781 2.339844 21.300781 C 2.582031 22.621094 3.71875 23.582031 5.039062 23.878906 C 7.140625 24.300781 10.738281 24.601562 14.699219 24.601562 C 18.660156 24.601562 22.261719 24.300781 24.359375 23.878906 C 25.679688 23.582031 26.820312 22.679688 27.0625 21.300781 C 27.300781 19.800781 27.601562 17.640625 27.660156 15 C 27.539062 12.300781 27.238281 10.199219 26.9375 8.699219 Z M 11.398438 19.199219 L 11.398438 10.800781 L 18.71875 15 Z M 11.398438 19.199219 "/>
</g>
</svg>
